#!OML:ASF F:\VICON\USERDATA\INSTALL\rory3\rory3.ASF
:FULLY-SPECIFIED
:DEGREES
46
root 0.596634 17.969 -19.6346 -2.32715 -3.10759 -7.04837
lowerback 10.8302 1.24661 6.40065
upperback 0.617588 2.58942 2.7099
thorax -5.2787 1.15185 -1.14682
lowerneck -17.1093 -3.21467 -1.64943
upperneck 21.4723 -4.12123 0.374117
head 9.66768 -2.00462 -0.142055
rclavicle -1.56419e-014 -4.96962e-015
rhumerus -24.1735 -9.95487 -81.5738
rradius 29.067
rwrist -0.000587294
rhand -19.515 22.4044
rfingers 7.12502
rthumb 6.80806 -7.46618
lclavicle -1.56419e-014 -4.96962e-015
lhumerus -33.7752 -0.836038 85.1501
lradius 26.5894
lwrist 5.37254
lhand -27.0271 23.671
lfingers 7.12502
lthumb -0.446286 53.6503
rfemur -3.78779 6.75786 34.5843
rtibia 29.2186
rfoot -18.7834 -7.48658
rtoes 4.79538
lfemur -28.6904 1.78482 -13.2315
ltibia 52.4453
lfoot -8.44359 3.04083
ltoes 0.570206
47
root 0.600736 17.944 -19.4752 -2.22421 -3.22578 -7.29839
lowerback 10.9358 0.978276 6.22837
upperback -0.240809 2.30786 3.19133
thorax -6.29605 0.983283 -0.513474
lowerneck -13.4801 -2.80409 -2.42333
upperneck 20.5491 -3.42224 0.357052
head 8.68594 -1.7625 0.133991
rclavicle -3.00662e-015 -3.85642e-014
rhumerus -25.7705 -7.68443 -81.3744
rradius 29.7599
rwrist -0.622827
rhand -19.3939 22.5563
rfingers 7.12502
rthumb 6.92492 -7.31043
lclavicle -3.00662e-015 -3.85642e-014
lhumerus -36.3971 0.839596 85.0793
lradius 27.1096
lwrist 4.95842
lhand -26.743 24.2154
lfingers 7.12502
lthumb -0.171916 54.195
rfemur -3.09792 6.94332 34.916
rtibia 28.841
rfoot -18.9163 -7.65341
rtoes 5.22332
lfemur -29.1428 1.56797 -12.8936
ltibia 49.8217
lfoot -8.28921 4.15807
ltoes -0.725848
48
root 0.603611 17.9346 -19.3094 -2.16035 -3.46681 -7.48292
lowerback 10.9157 1.34316 6.82888
upperback 0.317676 2.80254 2.79159
thorax -5.61587 1.23082 -1.33712
lowerneck -15.5489 -3.10424 -1.5881
upperneck 20.9128 -3.97794 0.268095
head 9.17776 -1.95597 -0.137226
rclavicle -1.2424e-016 1.78906e-015
rhumerus -24.4278 -8.64096 -81.8218
rradius 30.034
rwrist -0.9202
rhand -19.4059 22.2931
rfingers 7.12502
rthumb 6.91329 -7.57404
lclavicle -1.2424e-016 1.78906e-015
lhumerus -35.1948 -0.0120298 84.8514
lradius 27.0205
lwrist 4.69347
lhand -26.6832 24.2469
lfingers 7.12502
lthumb -0.11409 54.2266
rfemur -2.29868 7.06896 35.1637
rtibia 28.3606
rfoot -18.9423 -7.78597
rtoes 5.21697
lfemur -29.2517 1.33863 -12.5401
ltibia 47.3365
lfoot -8.54523 4.8203
ltoes 9.25681
49
root 0.608746 17.9355 -19.1347 -1.91422 -3.57648 -7.61193
lowerback 10.6195 1.4698 7.1831
upperback 0.530866 2.96086 2.62977
thorax -5.18591 1.31599 -1.71246
lowerneck -16.3859 -3.12786 -1.40811
upperneck 20.9987 -4.06072 0.335799
head 9.36014 -1.96745 -0.169512
rclavicle -7.15625e-015 -1.11319e-014
rhumerus -23.4947 -8.76348 -82.1199
rradius 30.162
rwrist -1.14633
rhand -19.6123 21.9126
rfingers 7.12502
rthumb 6.71412 -7.96096
lclavicle -7.15625e-015 -1.11319e-014
lhumerus -34.6509 0.216619 84.5765
lradius 26.5911
lwrist 4.27347
lhand -26.745 24.5374
lfingers 7.12502
lthumb -0.173821 54.5171
rfemur -1.66344 7.02086 35.2691
rtibia 27.8435
rfoot -19.0708 -7.72563
rtoes 4.99853
lfemur -29.4885 1.09352 -12.261
ltibia 44.8595
lfoot -8.84427 5.44048
ltoes 6.98778
50
root 0.614637 17.9335 -18.9592 -1.65466 -3.5064 -7.73123
lowerback 10.3845 1.40424 7.30319
upperback 0.398797 2.87719 2.68389
thorax -5.19793 1.26976 -1.7045
lowerneck -16.1938 -3.04308 -1.59504
upperneck 20.9579 -3.89431 0.331464
head 9.31321 -1.90664 -0.115188
rclavicle 2.94823e-014 4.4329e-014
rhumerus -23.3232 -8.31137 -82.1639
rradius 30.0029
rwrist -0.948565
rhand -19.7904 22.5584
rfingers 7.12502
rthumb 6.54218 -7.32057
lclavicle 2.94823e-014 4.4329e-014
lhumerus -35.0109 0.888378 84.4292
lradius 26.218
lwrist 4.26935
lhand -26.8684 24.2129
lfingers 7.12502
lthumb -0.292956 54.1924
rfemur -1.05307 6.90985 35.3782
rtibia 27.3256
rfoot -19.3273 -7.74307
rtoes 4.66758
lfemur -29.6581 0.654259 -11.9696
ltibia 42.3822
lfoot -9.62516 6.22949
ltoes -0.261512
51
root 0.620076 17.916 -18.7851 -1.38863 -3.54727 -7.98525
lowerback 10.1423 1.42489 7.43455
upperback 0.298607 2.91159 2.84644
thorax -5.16794 1.28456 -1.60475
lowerneck -16.092 -3.09606 -1.77996
upperneck 20.9807 -3.90298 0.254197
head 9.30501 -1.9346 -0.110826
rclavicle -1.76421e-014 -1.76918e-014
rhumerus -23.2904 -7.67268 -82.077
rradius 30.2118
rwrist -1.1025
rhand -19.5708 23.2699
rfingers 7.12502
rthumb 6.75415 -6.60235
lclavicle -1.76421e-014 -1.76918e-014
lhumerus -35.273 1.2011 84.5355
lradius 25.8504
lwrist 4.74202
lhand -26.9494 23.2696
lfingers 7.12502
lthumb -0.371264 53.249
rfemur -0.491803 6.91655 35.6545
rtibia 26.9469
rfoot -19.6348 -7.80316
rtoes 4.15862
lfemur -29.6618 0.170974 -11.483
ltibia 39.5939
lfoot -10.0877 6.98703
ltoes -4.4365
52
root 0.629259 17.8933 -18.6088 -1.15553 -3.82248 -8.01507
lowerback 9.99688 1.56338 7.4841
upperback 0.218699 3.08962 2.8065
thorax -5.15175 1.36943 -1.6938
lowerneck -15.9011 -3.10041 -1.76279
upperneck 20.8761 -3.91552 0.252772
head 9.2331 -1.94044 -0.111451
rclavicle 7.66563e-015 -1.33186e-014
rhumerus -23.2121 -7.1278 -82.2364
rradius 30.578
rwrist -1.22848
rhand -19.6005 23.2242
rfingers 7.12502
rthumb 6.72546 -6.64898
lclavicle 7.66563e-015 -1.33186e-014
lhumerus -35.4826 1.46404 84.4352
lradius 25.6015
lwrist 4.9024
lhand -27.0094 22.5799
lfingers 7.12502
lthumb -0.429198 52.5592
rfemur 0.13811 6.93857 35.6221
rtibia 26.568
rfoot -19.9517 -7.58849
rtoes 4.0227
lfemur -29.6543 -0.130386 -11.2766
ltibia 36.6715
lfoot -9.75018 7.96213
ltoes -4.01319
53
root 0.637884 17.8653 -18.4319 -0.996131 -4.11451 -8.01084
lowerback 10.0264 1.69783 7.51847
upperback 0.0382584 3.28368 2.72877
thorax -5.33729 1.45262 -1.82452
lowerneck -15.4299 -3.03238 -1.72602
upperneck 20.7433 -3.85815 0.339882
head 9.1007 -1.90383 -0.0713867
rclavicle 5.42931e-015 0
rhumerus -23.2975 -6.84297 -82.378
rradius 30.8158
rwrist -1.24165
rhand -19.5904 23.2443
rfingers 7.12502
rthumb 6.73528 -6.62859
lclavicle 5.42931e-015 0
lhumerus -36.0008 1.83039 84.193
lradius 25.5098
lwrist 4.72492
lhand -27.0565 22.1124
lfingers 7.12502
lthumb -0.474675 52.0916
rfemur 0.744927 6.9484 35.564
rtibia 26.42
rfoot -20.3412 -7.42184
rtoes 3.78465
lfemur -29.5997 -0.479548 -11.0527
ltibia 33.5543
lfoot -8.71626 9.07123
ltoes -6.41246
